{
	"asset":{
		"generator":"Khronos glTF Blender I/O v4.1.63",
		"version":"2.0"
	},
	"scene":0,
	"scenes":[
		{
			"extras":{
				"scatter5":{
					"emitter":{},
					"operators":{
						"create_operators":{}
					}
				}
			},
			"name":"Scene",
			"nodes":[
				0,
				1,
				2,
				3,
				4,
				5,
				6,
				7,
				8,
				9,
				10,
				11,
				12,
				13,
				14
			]
		}
	],
	"nodes":[
		{
			"extras":{
				"scatter5":{}
			},
			"mesh":0,
			"name":"axis_y.001"
		},
		{
			"extras":{
				"scatter5":{}
			},
			"mesh":1,
			"name":"axis_z"
		},
		{
			"extras":{
				"scatter5":{}
			},
			"mesh":2,
			"name":"axis_x.001"
		},
		{
			"extras":{
				"scatter5":{}
			},
			"mesh":3,
			"name":"plane_xz"
		},
		{
			"extras":{
				"scatter5":{}
			},
			"mesh":4,
			"name":"plane_yz"
		},
		{
			"extras":{
				"scatter5":{}
			},
			"mesh":5,
			"name":"plane_xy"
		},
		{
			"extras":{
				"scatter5":{
					"estimated_square_area":1.1687778234481812
				}
			},
			"mesh":6,
			"name":"rot_axis_y"
		},
		{
			"extras":{
				"scatter5":{
					"estimated_square_area":1.1687778234481812
				}
			},
			"mesh":7,
			"name":"rot_axis_x",
			"rotation":[
				0,
				0,
				-0.7071068286895752,
				0.7071068286895752
			]
		},
		{
			"extras":{
				"scatter5":{
					"estimated_square_area":1.1687778234481812
				}
			},
			"mesh":8,
			"name":"rot_axis_z",
			"rotation":[
				0.7071068286895752,
				0,
				0,
				0.7071068286895752
			]
		},
		{
			"extras":{
				"scatter5":{
					"estimated_square_area":12.46568775177002
				}
			},
			"mesh":9,
			"name":"trackball",
			"scale":[
				0.8644983768463135,
				0.8644983768463135,
				0.8644983768463135
			]
		},
		{
			"extras":{
				"scatter5":{
					"estimated_square_area":1.6362874507904053
				}
			},
			"mesh":10,
			"name":"rot_axis_viewport"
		},
		{
			"extras":{
				"scatter5":{}
			},
			"mesh":11,
			"name":"scale_axis_y"
		},
		{
			"extras":{
				"scatter5":{}
			},
			"mesh":12,
			"name":"scale_axis_z",
			"rotation":[
				0.7071068286895752,
				0,
				0,
				0.7071068286895752
			]
		},
		{
			"extras":{
				"scatter5":{}
			},
			"mesh":13,
			"name":"scale_axis_x",
			"rotation":[
				0,
				0,
				-0.7071068286895752,
				0.7071068286895752
			]
		},
		{
			"extras":{
				"scatter5":{}
			},
			"mesh":14,
			"name":"scale_axis_all",
			"rotation":[
				0.7071068286895752,
				0,
				0,
				0.7071068286895752
			]
		}
	],
	"materials":[
		{
			"doubleSided":true,
			"name":"dim_y",
			"pbrMetallicRoughness":{
				"baseColorFactor":[
					0,
					1,
					0,
					1
				],
				"metallicFactor":0,
				"roughnessFactor":0.5
			}
		},
		{
			"doubleSided":true,
			"name":"dim_z",
			"pbrMetallicRoughness":{
				"baseColorFactor":[
					0,
					0,
					1,
					1
				],
				"metallicFactor":0,
				"roughnessFactor":0.5
			}
		},
		{
			"doubleSided":true,
			"name":"dim_x",
			"pbrMetallicRoughness":{
				"baseColorFactor":[
					1,
					0,
					0,
					1
				],
				"metallicFactor":0,
				"roughnessFactor":0.5
			}
		},
		{
			"doubleSided":true,
			"name":"Material.001",
			"pbrMetallicRoughness":{
				"baseColorFactor":[
					0.800000011920929,
					0.800000011920929,
					0.800000011920929,
					1
				],
				"metallicFactor":0,
				"roughnessFactor":0.5
			}
		},
		{
			"doubleSided":true,
			"name":"special",
			"pbrMetallicRoughness":{
				"baseColorFactor":[
					0.800000011920929,
					0.800000011920929,
					0.800000011920929,
					1
				],
				"metallicFactor":0,
				"roughnessFactor":0.5
			}
		}
	],
	"meshes":[
		{
			"name":"Cone",
			"primitives":[
				{
					"attributes":{
						"POSITION":0,
						"NORMAL":1,
						"TEXCOORD_0":2
					},
					"indices":3,
					"material":0
				}
			]
		},
		{
			"name":"Cone.003",
			"primitives":[
				{
					"attributes":{
						"POSITION":4,
						"NORMAL":5,
						"TEXCOORD_0":6
					},
					"indices":3,
					"material":1
				}
			]
		},
		{
			"name":"Cone.004",
			"primitives":[
				{
					"attributes":{
						"POSITION":7,
						"NORMAL":8,
						"TEXCOORD_0":9
					},
					"indices":3,
					"material":2
				}
			]
		},
		{
			"name":"Plane",
			"primitives":[
				{
					"attributes":{
						"POSITION":10,
						"NORMAL":11,
						"TEXCOORD_0":12,
						"TANGENT":13
					},
					"indices":14,
					"material":0
				}
			]
		},
		{
			"name":"Plane.001",
			"primitives":[
				{
					"attributes":{
						"POSITION":15,
						"NORMAL":16,
						"TEXCOORD_0":17,
						"TANGENT":18
					},
					"indices":14,
					"material":2
				}
			]
		},
		{
			"name":"Plane.002",
			"primitives":[
				{
					"attributes":{
						"POSITION":19,
						"NORMAL":20,
						"TEXCOORD_0":21,
						"TANGENT":22
					},
					"indices":14,
					"material":1
				}
			]
		},
		{
			"name":"Torus",
			"primitives":[
				{
					"attributes":{
						"POSITION":23,
						"NORMAL":24,
						"TEXCOORD_0":25,
						"TANGENT":26
					},
					"indices":27,
					"material":0
				}
			]
		},
		{
			"name":"Torus.001",
			"primitives":[
				{
					"attributes":{
						"POSITION":28,
						"NORMAL":29,
						"TEXCOORD_0":30,
						"TANGENT":31
					},
					"indices":27,
					"material":2
				}
			]
		},
		{
			"name":"Torus.002",
			"primitives":[
				{
					"attributes":{
						"POSITION":32,
						"NORMAL":33,
						"TEXCOORD_0":34,
						"TANGENT":35
					},
					"indices":27,
					"material":1
				}
			]
		},
		{
			"name":"Sphere",
			"primitives":[
				{
					"attributes":{
						"POSITION":36,
						"NORMAL":37,
						"TEXCOORD_0":38,
						"TANGENT":39
					},
					"indices":40,
					"material":3
				}
			]
		},
		{
			"name":"Torus.003",
			"primitives":[
				{
					"attributes":{
						"POSITION":41,
						"NORMAL":42,
						"TEXCOORD_0":43,
						"TANGENT":44
					},
					"indices":45,
					"material":4
				}
			]
		},
		{
			"name":"Cone.005",
			"primitives":[
				{
					"attributes":{
						"POSITION":46,
						"NORMAL":47,
						"TEXCOORD_0":48
					},
					"indices":49,
					"material":0
				}
			]
		},
		{
			"name":"Cone.006",
			"primitives":[
				{
					"attributes":{
						"POSITION":50,
						"NORMAL":51,
						"TEXCOORD_0":52
					},
					"indices":49,
					"material":1
				}
			]
		},
		{
			"name":"Cone.007",
			"primitives":[
				{
					"attributes":{
						"POSITION":53,
						"NORMAL":54,
						"TEXCOORD_0":55
					},
					"indices":49,
					"material":2
				}
			]
		},
		{
			"name":"Cone.008",
			"primitives":[
				{
					"attributes":{
						"POSITION":56,
						"NORMAL":57,
						"TEXCOORD_0":58,
						"TANGENT":59
					},
					"indices":60,
					"material":4
				}
			]
		}
	],
	"accessors":[
		{
			"bufferView":0,
			"componentType":5126,
			"count":76,
			"max":[
				0.13591443002223969,
				1.00135338306427,
				0.13591443002223969
			],
			"min":[
				-0.13591443002223969,
				0.10803107172250748,
				-0.13591443002223969
			],
			"type":"VEC3"
		},
		{
			"bufferView":1,
			"componentType":5126,
			"count":76,
			"type":"VEC3"
		},
		{
			"bufferView":2,
			"componentType":5126,
			"count":76,
			"type":"VEC2"
		},
		{
			"bufferView":3,
			"componentType":5123,
			"count":210,
			"type":"SCALAR"
		},
		{
			"bufferView":4,
			"componentType":5126,
			"count":76,
			"max":[
				0.13591443002223969,
				0.1359144002199173,
				1.00135338306427
			],
			"min":[
				-0.13591443002223969,
				-0.13591445982456207,
				0.10803107172250748
			],
			"type":"VEC3"
		},
		{
			"bufferView":5,
			"componentType":5126,
			"count":76,
			"type":"VEC3"
		},
		{
			"bufferView":6,
			"componentType":5126,
			"count":76,
			"type":"VEC2"
		},
		{
			"bufferView":7,
			"componentType":5126,
			"count":76,
			"max":[
				1.00135338306427,
				0.13591448962688446,
				0.13591443002223969
			],
			"min":[
				0.10803107172250748,
				-0.1359143704175949,
				-0.13591443002223969
			],
			"type":"VEC3"
		},
		{
			"bufferView":8,
			"componentType":5126,
			"count":76,
			"type":"VEC3"
		},
		{
			"bufferView":9,
			"componentType":5126,
			"count":76,
			"type":"VEC2"
		},
		{
			"bufferView":10,
			"componentType":5126,
			"count":4,
			"max":[
				0.5164748430252075,
				0,
				0.5164748430252075
			],
			"min":[
				0.24464596807956696,
				0,
				0.24464596807956696
			],
			"type":"VEC3"
		},
		{
			"bufferView":11,
			"componentType":5126,
			"count":4,
			"type":"VEC3"
		},
		{
			"bufferView":12,
			"componentType":5126,
			"count":4,
			"type":"VEC2"
		},
		{
			"bufferView":13,
			"componentType":5126,
			"count":4,
			"type":"VEC4"
		},
		{
			"bufferView":14,
			"componentType":5123,
			"count":6,
			"type":"SCALAR"
		},
		{
			"bufferView":15,
			"componentType":5126,
			"count":4,
			"max":[
				3.899276634911075e-08,
				0.5164748430252075,
				0.5164748430252075
			],
			"min":[
				1.8470256435421106e-08,
				0.24464596807956696,
				0.24464596807956696
			],
			"type":"VEC3"
		},
		{
			"bufferView":16,
			"componentType":5126,
			"count":4,
			"type":"VEC3"
		},
		{
			"bufferView":17,
			"componentType":5126,
			"count":4,
			"type":"VEC2"
		},
		{
			"bufferView":18,
			"componentType":5126,
			"count":4,
			"type":"VEC4"
		},
		{
			"bufferView":19,
			"componentType":5126,
			"count":4,
			"max":[
				0.5164749026298523,
				0.5164748430252075,
				-1.0693814722628758e-08
			],
			"min":[
				0.24464598298072815,
				0.24464592337608337,
				-2.2575832758775505e-08
			],
			"type":"VEC3"
		},
		{
			"bufferView":20,
			"componentType":5126,
			"count":4,
			"type":"VEC3"
		},
		{
			"bufferView":21,
			"componentType":5126,
			"count":4,
			"type":"VEC2"
		},
		{
			"bufferView":22,
			"componentType":5126,
			"count":4,
			"type":"VEC4"
		},
		{
			"bufferView":23,
			"componentType":5126,
			"count":637,
			"max":[
				1.0299999713897705,
				0.029999418184161186,
				1.0299999713897705
			],
			"min":[
				-1.0299999713897705,
				-0.029999418184161186,
				-1.0299999713897705
			],
			"type":"VEC3"
		},
		{
			"bufferView":24,
			"componentType":5126,
			"count":637,
			"type":"VEC3"
		},
		{
			"bufferView":25,
			"componentType":5126,
			"count":637,
			"type":"VEC2"
		},
		{
			"bufferView":26,
			"componentType":5126,
			"count":637,
			"type":"VEC4"
		},
		{
			"bufferView":27,
			"componentType":5123,
			"count":3456,
			"type":"SCALAR"
		},
		{
			"bufferView":28,
			"componentType":5126,
			"count":637,
			"max":[
				1.0299999713897705,
				0.029999418184161186,
				1.0299999713897705
			],
			"min":[
				-1.0299999713897705,
				-0.029999418184161186,
				-1.0299999713897705
			],
			"type":"VEC3"
		},
		{
			"bufferView":29,
			"componentType":5126,
			"count":637,
			"type":"VEC3"
		},
		{
			"bufferView":30,
			"componentType":5126,
			"count":637,
			"type":"VEC2"
		},
		{
			"bufferView":31,
			"componentType":5126,
			"count":637,
			"type":"VEC4"
		},
		{
			"bufferView":32,
			"componentType":5126,
			"count":637,
			"max":[
				1.0299999713897705,
				0.029999418184161186,
				1.0299999713897705
			],
			"min":[
				-1.0299999713897705,
				-0.029999418184161186,
				-1.0299999713897705
			],
			"type":"VEC3"
		},
		{
			"bufferView":33,
			"componentType":5126,
			"count":637,
			"type":"VEC3"
		},
		{
			"bufferView":34,
			"componentType":5126,
			"count":637,
			"type":"VEC2"
		},
		{
			"bufferView":35,
			"componentType":5126,
			"count":637,
			"type":"VEC4"
		},
		{
			"bufferView":36,
			"componentType":5126,
			"count":559,
			"max":[
				0.9999997019767761,
				1,
				0.9999993443489075
			],
			"min":[
				-0.9999990463256836,
				-1,
				-1
			],
			"type":"VEC3"
		},
		{
			"bufferView":37,
			"componentType":5126,
			"count":559,
			"type":"VEC3"
		},
		{
			"bufferView":38,
			"componentType":5126,
			"count":559,
			"type":"VEC2"
		},
		{
			"bufferView":39,
			"componentType":5126,
			"count":559,
			"type":"VEC4"
		},
		{
			"bufferView":40,
			"componentType":5123,
			"count":2880,
			"type":"SCALAR"
		},
		{
			"bufferView":41,
			"componentType":5126,
			"count":2304,
			"max":[
				1.4299999475479126,
				0.029999420046806335,
				1.4299999475479126
			],
			"min":[
				-1.4299999475479126,
				-0.029999420046806335,
				-1.4299999475479126
			],
			"type":"VEC3"
		},
		{
			"bufferView":42,
			"componentType":5126,
			"count":2304,
			"type":"VEC3"
		},
		{
			"bufferView":43,
			"componentType":5126,
			"count":2304,
			"type":"VEC2"
		},
		{
			"bufferView":44,
			"componentType":5126,
			"count":2304,
			"type":"VEC4"
		},
		{
			"bufferView":45,
			"componentType":5123,
			"count":3456,
			"type":"SCALAR"
		},
		{
			"bufferView":46,
			"componentType":5126,
			"count":76,
			"max":[
				0.13986198604106903,
				0.9986029267311096,
				0.13986198604106903
			],
			"min":[
				-0.13986198604106903,
				0.10803107172250748,
				-0.13986198604106903
			],
			"type":"VEC3"
		},
		{
			"bufferView":47,
			"componentType":5126,
			"count":76,
			"type":"VEC3"
		},
		{
			"bufferView":48,
			"componentType":5126,
			"count":76,
			"type":"VEC2"
		},
		{
			"bufferView":49,
			"componentType":5123,
			"count":180,
			"type":"SCALAR"
		},
		{
			"bufferView":50,
			"componentType":5126,
			"count":76,
			"max":[
				0.13986198604106903,
				0.9986029267311096,
				0.13986198604106903
			],
			"min":[
				-0.13986198604106903,
				0.10803107172250748,
				-0.13986198604106903
			],
			"type":"VEC3"
		},
		{
			"bufferView":51,
			"componentType":5126,
			"count":76,
			"type":"VEC3"
		},
		{
			"bufferView":52,
			"componentType":5126,
			"count":76,
			"type":"VEC2"
		},
		{
			"bufferView":53,
			"componentType":5126,
			"count":76,
			"max":[
				0.13986198604106903,
				0.9986029267311096,
				0.13986198604106903
			],
			"min":[
				-0.13986198604106903,
				0.10803107172250748,
				-0.13986198604106903
			],
			"type":"VEC3"
		},
		{
			"bufferView":54,
			"componentType":5126,
			"count":76,
			"type":"VEC3"
		},
		{
			"bufferView":55,
			"componentType":5126,
			"count":76,
			"type":"VEC2"
		},
		{
			"bufferView":56,
			"componentType":5126,
			"count":24,
			"max":[
				0.13986198604106903,
				0.139862060546875,
				0.13986198604106903
			],
			"min":[
				-0.13986198604106903,
				-0.13986194133758545,
				-0.13986198604106903
			],
			"type":"VEC3"
		},
		{
			"bufferView":57,
			"componentType":5126,
			"count":24,
			"type":"VEC3"
		},
		{
			"bufferView":58,
			"componentType":5126,
			"count":24,
			"type":"VEC2"
		},
		{
			"bufferView":59,
			"componentType":5126,
			"count":24,
			"type":"VEC4"
		},
		{
			"bufferView":60,
			"componentType":5123,
			"count":36,
			"type":"SCALAR"
		}
	],
	"bufferViews":[
		{
			"buffer":0,
			"byteLength":912,
			"byteOffset":0,
			"target":34962
		},
		{
			"buffer":0,
			"byteLength":912,
			"byteOffset":912,
			"target":34962
		},
		{
			"buffer":0,
			"byteLength":608,
			"byteOffset":1824,
			"target":34962
		},
		{
			"buffer":0,
			"byteLength":420,
			"byteOffset":2432,
			"target":34963
		},
		{
			"buffer":0,
			"byteLength":912,
			"byteOffset":2852,
			"target":34962
		},
		{
			"buffer":0,
			"byteLength":912,
			"byteOffset":3764,
			"target":34962
		},
		{
			"buffer":0,
			"byteLength":608,
			"byteOffset":4676,
			"target":34962
		},
		{
			"buffer":0,
			"byteLength":912,
			"byteOffset":5284,
			"target":34962
		},
		{
			"buffer":0,
			"byteLength":912,
			"byteOffset":6196,
			"target":34962
		},
		{
			"buffer":0,
			"byteLength":608,
			"byteOffset":7108,
			"target":34962
		},
		{
			"buffer":0,
			"byteLength":48,
			"byteOffset":7716,
			"target":34962
		},
		{
			"buffer":0,
			"byteLength":48,
			"byteOffset":7764,
			"target":34962
		},
		{
			"buffer":0,
			"byteLength":32,
			"byteOffset":7812,
			"target":34962
		},
		{
			"buffer":0,
			"byteLength":64,
			"byteOffset":7844,
			"target":34962
		},
		{
			"buffer":0,
			"byteLength":12,
			"byteOffset":7908,
			"target":34963
		},
		{
			"buffer":0,
			"byteLength":48,
			"byteOffset":7920,
			"target":34962
		},
		{
			"buffer":0,
			"byteLength":48,
			"byteOffset":7968,
			"target":34962
		},
		{
			"buffer":0,
			"byteLength":32,
			"byteOffset":8016,
			"target":34962
		},
		{
			"buffer":0,
			"byteLength":64,
			"byteOffset":8048,
			"target":34962
		},
		{
			"buffer":0,
			"byteLength":48,
			"byteOffset":8112,
			"target":34962
		},
		{
			"buffer":0,
			"byteLength":48,
			"byteOffset":8160,
			"target":34962
		},
		{
			"buffer":0,
			"byteLength":32,
			"byteOffset":8208,
			"target":34962
		},
		{
			"buffer":0,
			"byteLength":64,
			"byteOffset":8240,
			"target":34962
		},
		{
			"buffer":0,
			"byteLength":7644,
			"byteOffset":8304,
			"target":34962
		},
		{
			"buffer":0,
			"byteLength":7644,
			"byteOffset":15948,
			"target":34962
		},
		{
			"buffer":0,
			"byteLength":5096,
			"byteOffset":23592,
			"target":34962
		},
		{
			"buffer":0,
			"byteLength":10192,
			"byteOffset":28688,
			"target":34962
		},
		{
			"buffer":0,
			"byteLength":6912,
			"byteOffset":38880,
			"target":34963
		},
		{
			"buffer":0,
			"byteLength":7644,
			"byteOffset":45792,
			"target":34962
		},
		{
			"buffer":0,
			"byteLength":7644,
			"byteOffset":53436,
			"target":34962
		},
		{
			"buffer":0,
			"byteLength":5096,
			"byteOffset":61080,
			"target":34962
		},
		{
			"buffer":0,
			"byteLength":10192,
			"byteOffset":66176,
			"target":34962
		},
		{
			"buffer":0,
			"byteLength":7644,
			"byteOffset":76368,
			"target":34962
		},
		{
			"buffer":0,
			"byteLength":7644,
			"byteOffset":84012,
			"target":34962
		},
		{
			"buffer":0,
			"byteLength":5096,
			"byteOffset":91656,
			"target":34962
		},
		{
			"buffer":0,
			"byteLength":10192,
			"byteOffset":96752,
			"target":34962
		},
		{
			"buffer":0,
			"byteLength":6708,
			"byteOffset":106944,
			"target":34962
		},
		{
			"buffer":0,
			"byteLength":6708,
			"byteOffset":113652,
			"target":34962
		},
		{
			"buffer":0,
			"byteLength":4472,
			"byteOffset":120360,
			"target":34962
		},
		{
			"buffer":0,
			"byteLength":8944,
			"byteOffset":124832,
			"target":34962
		},
		{
			"buffer":0,
			"byteLength":5760,
			"byteOffset":133776,
			"target":34963
		},
		{
			"buffer":0,
			"byteLength":27648,
			"byteOffset":139536,
			"target":34962
		},
		{
			"buffer":0,
			"byteLength":27648,
			"byteOffset":167184,
			"target":34962
		},
		{
			"buffer":0,
			"byteLength":18432,
			"byteOffset":194832,
			"target":34962
		},
		{
			"buffer":0,
			"byteLength":36864,
			"byteOffset":213264,
			"target":34962
		},
		{
			"buffer":0,
			"byteLength":6912,
			"byteOffset":250128,
			"target":34963
		},
		{
			"buffer":0,
			"byteLength":912,
			"byteOffset":257040,
			"target":34962
		},
		{
			"buffer":0,
			"byteLength":912,
			"byteOffset":257952,
			"target":34962
		},
		{
			"buffer":0,
			"byteLength":608,
			"byteOffset":258864,
			"target":34962
		},
		{
			"buffer":0,
			"byteLength":360,
			"byteOffset":259472,
			"target":34963
		},
		{
			"buffer":0,
			"byteLength":912,
			"byteOffset":259832,
			"target":34962
		},
		{
			"buffer":0,
			"byteLength":912,
			"byteOffset":260744,
			"target":34962
		},
		{
			"buffer":0,
			"byteLength":608,
			"byteOffset":261656,
			"target":34962
		},
		{
			"buffer":0,
			"byteLength":912,
			"byteOffset":262264,
			"target":34962
		},
		{
			"buffer":0,
			"byteLength":912,
			"byteOffset":263176,
			"target":34962
		},
		{
			"buffer":0,
			"byteLength":608,
			"byteOffset":264088,
			"target":34962
		},
		{
			"buffer":0,
			"byteLength":288,
			"byteOffset":264696,
			"target":34962
		},
		{
			"buffer":0,
			"byteLength":288,
			"byteOffset":264984,
			"target":34962
		},
		{
			"buffer":0,
			"byteLength":192,
			"byteOffset":265272,
			"target":34962
		},
		{
			"buffer":0,
			"byteLength":384,
			"byteOffset":265464,
			"target":34962
		},
		{
			"buffer":0,
			"byteLength":72,
			"byteOffset":265848,
			"target":34963
		}
	],
	"buffers":[
		{
			"byteLength":265920,
			"uri":"gizmo_rotate-f4d469f79876ef5b51bcad775cdaa197.bin"
		}
	]
}
